<svg width="188" height="192" viewBox="0 0 188 192" fill="none" xmlns="http://www.w3.org/2000/svg">
<path d="M93.8587 60.6443C75.335 60.6443 60.2239 75.8537 60.2239 94.5172C60.2239 113.181 75.3254 128.342 93.8587 128.342C112.392 128.342 127.465 113.181 127.465 94.5172C127.465 75.8537 112.411 60.6443 93.8587 60.6443ZM93.8587 112.31C84.121 112.31 76.2098 104.328 76.2098 94.5172C76.2098 84.7065 84.121 76.7051 93.8587 76.7051C103.596 76.7051 111.575 84.6968 111.575 94.5172C111.575 104.337 103.606 112.31 93.8587 112.31Z" fill="url(#paint0_linear_36_3334)"/>
<path d="M93.8969 0C67.0871 0 41.4884 11.6006 23.6473 31.8604L21.321 34.5114V6.69523C21.321 3.21216 16.0628 1.33517 10.2279 1.33517C4.39302 1.33517 0 3.52177 0 6.69523V98.1161C0.990108 149.017 43.1995 188.995 93.9064 188.995C144.613 188.995 187.803 146.628 187.803 94.517C187.803 42.4064 145.7 0 93.9064 0H93.8969ZM93.8969 168.3C53.4563 168.3 20.5616 135.201 20.5616 94.517C20.5616 53.8328 53.4563 20.7146 93.8969 20.7146C134.337 20.7146 167.213 53.7941 167.213 94.517C167.213 135.24 134.318 168.3 93.8969 168.3Z" fill="url(#paint1_linear_36_3334)"/>
<path d="M137.058 104.995C132.28 124.897 114.343 139.207 93.8584 139.207C69.3556 139.207 49.4285 119.169 49.4285 94.5171C49.4285 69.8647 69.346 49.7596 93.8584 49.7596C114.343 49.7596 132.28 64.0886 137.058 84.0098H156.264C151.227 53.5523 124.782 30.835 93.8584 30.835C58.9931 30.835 30.6165 59.3961 30.6165 94.5268C30.6165 129.657 58.9931 158.19 93.8584 158.19C124.782 158.19 151.227 135.472 156.264 105.015H137.058V104.995Z" fill="url(#paint2_linear_36_3334)"/>
<defs>
<linearGradient id="paint0_linear_36_3334" x1="115.94" y1="117.049" x2="58.3159" y2="57.7249" gradientUnits="userSpaceOnUse">
<stop stop-color="#0059FF"/>
<stop offset="1" stop-color="#85B0FF"/>
</linearGradient>
<linearGradient id="paint1_linear_36_3334" x1="155.614" y1="157.468" x2="-5.25625" y2="-8.22096" gradientUnits="userSpaceOnUse">
<stop stop-color="#0059FF"/>
<stop offset="1" stop-color="#85B0FF"/>
</linearGradient>
<linearGradient id="paint2_linear_36_3334" x1="134.728" y1="136.945" x2="26.3054" y2="26.0721" gradientUnits="userSpaceOnUse">
<stop stop-color="#0059FF"/>
<stop offset="1" stop-color="#85B0FF"/>
</linearGradient>
</defs>
</svg>
