<svg width="96" height="96" viewBox="0 0 96 96" fill="none" xmlns="http://www.w3.org/2000/svg">
<path d="M54.3 48L63.6562 58.6875L76.2375 66.7312L78.4312 48.075L76.2375 29.8125L63.4125 36.8812L54.3 48Z" fill="#00832D"/>
<path d="M0 65.0063V80.9063C0 84.5438 2.94375 87.4875 6.58125 87.4875H22.4813L25.7812 75.4688L22.4813 65.0063L11.5688 61.7063L0 65.0063Z" fill="#0066DA"/>
<path d="M22.4813 8.51245L0 30.9937L11.5688 34.2937L22.4813 30.9937L25.725 20.6812L22.4813 8.51245Z" fill="#E94235"/>
<path d="M22.4813 30.9937H0V65.0062H22.4813V30.9937Z" fill="#2684FC"/>
<path d="M90.6188 18.0374L76.2375 29.8124V66.7311L90.675 78.5624C92.8313 80.2499 96 78.7124 96 75.9561V20.5686C96 17.7936 92.775 16.2749 90.6188 18.0374ZM54.3 47.9999V65.0061H22.4813V87.4874H69.6563C73.2938 87.4874 76.2375 84.5436 76.2375 80.9061V66.7311L54.3 47.9999Z" fill="#00AC47"/>
<path d="M69.6563 8.51245H22.4813V30.9937H54.3V48L76.2375 29.8312V15.0937C76.2375 11.4562 73.2938 8.51245 69.6563 8.51245Z" fill="#FFBA00"/>
</svg>
