<svg width="96" height="96" viewBox="0 0 96 96" fill="gray" xmlns="http://www.w3.org/2000/svg">
<path d="M48 16C39.5131 16 31.3737 19.3714 25.3726 25.3726C19.3714 31.3737 16 39.5131 16 48C16 56.4869 19.3714 64.6263 25.3726 70.6274C31.3737 76.6286 39.5131 80 48 80C56.4869 80 64.6263 76.6286 70.6274 70.6274C76.6286 64.6263 80 56.4869 80 48C80 39.5131 76.6286 31.3737 70.6274 25.3726C64.6263 19.3714 56.4869 16 48 16ZM8 48C8 25.908 25.908 8 48 8C70.092 8 88 25.908 88 48C88 70.092 70.092 88 48 88C25.908 88 8 70.092 8 48Z" fill="gray"/>
<path d="M48 32C46.4241 32 44.8637 32.3104 43.4078 32.9134C41.9519 33.5165 40.629 34.4004 39.5147 35.5147C38.4004 36.629 37.5165 37.9519 36.9134 39.4078C36.3104 40.8637 36 42.4241 36 44C36 45.5759 36.3104 47.1363 36.9134 48.5922C37.5165 50.0481 38.4004 51.371 39.5147 52.4853C40.629 53.5996 41.9519 54.4835 43.4078 55.0866C44.8637 55.6896 46.4241 56 48 56C51.1826 56 54.2348 54.7357 56.4853 52.4853C58.7357 50.2348 60 47.1826 60 44C60 40.8174 58.7357 37.7652 56.4853 35.5147C54.2348 33.2643 51.1826 32 48 32ZM28 44C28 38.6957 30.1071 33.6086 33.8579 29.8579C37.6086 26.1071 42.6957 24 48 24C53.3043 24 58.3914 26.1071 62.1421 29.8579C65.8929 33.6086 68 38.6957 68 44C68 49.3043 65.8929 54.3914 62.1421 58.1421C58.3914 61.8929 53.3043 64 48 64C42.6957 64 37.6086 61.8929 33.8579 58.1421C30.1071 54.3914 28 49.3043 28 44Z" fill="gray"/>
<path d="M48 64C43.8633 64 39.8283 65.282 36.4502 67.6695C33.0721 70.0569 30.5168 73.4326 29.136 77.332C28.9722 77.8411 28.708 78.3123 28.3589 78.7175C28.0099 79.1227 27.5831 79.4538 27.1038 79.6913C26.6246 79.9287 26.1026 80.0676 25.5687 80.0997C25.0348 80.1319 24.4999 80.0567 23.9957 79.8785C23.4914 79.7003 23.0279 79.4228 22.6328 79.0624C22.2376 78.702 21.9187 78.266 21.695 77.7802C21.4712 77.2944 21.3472 76.7687 21.3302 76.2341C21.3132 75.6996 21.4036 75.167 21.596 74.668C23.5275 69.2088 27.1037 64.4826 31.8323 61.1399C36.5608 57.7971 42.2092 56.0022 48 56.0022C53.7908 56.0022 59.4392 57.7971 64.1677 61.1399C68.8963 64.4826 72.4724 69.2088 74.404 74.668C74.5964 75.167 74.6868 75.6996 74.6698 76.2341C74.6528 76.7687 74.5287 77.2944 74.305 77.7802C74.0813 78.266 73.7624 78.702 73.3672 79.0624C72.9721 79.4228 72.5086 79.7003 72.0043 79.8785C71.5 80.0567 70.9651 80.1319 70.4313 80.0997C69.8974 80.0676 69.3754 79.9287 68.8961 79.6913C68.4169 79.4538 67.9901 79.1227 67.6411 78.7175C67.292 78.3123 67.0278 77.8411 66.864 77.332C65.4837 73.4323 62.9285 70.0563 59.5503 67.6687C56.172 65.2812 52.1368 63.9994 48 64Z" fill="gray"/>
</svg>
