<svg width="96" height="96" viewBox="0 0 96 96" fill="none" xmlns="http://www.w3.org/2000/svg">
<g clip-path="url(#clip0_36_3363)">
<path d="M67.1086 36.7507H92.0988C94.4606 36.7507 96.3743 38.6645 96.3743 41.0262V63.79C96.3743 72.4682 89.3395 79.5003 80.664 79.5003H80.5897C71.9115 79.5003 64.8767 72.4682 64.8767 63.79V63.7873V38.9826C64.8741 37.75 65.876 36.7507 67.1086 36.7507Z" fill="#5059C9"/>
<path d="M83.9985 32.2497C89.5906 32.2497 94.1239 27.7164 94.1239 22.1242C94.1239 16.5321 89.5906 11.9988 83.9985 11.9988C78.4063 11.9988 73.873 16.5321 73.873 22.1242C73.873 27.7164 78.4063 32.2497 83.9985 32.2497Z" fill="#5059C9"/>
<path d="M52.5008 3C60.5773 3 67.1244 9.54709 67.1244 17.6236C67.1244 25.7001 60.5773 32.2472 52.5008 32.2472C44.4243 32.2472 37.8772 25.7001 37.8772 17.6236C37.8772 9.54709 44.4216 3 52.5008 3Z" fill="#7B83EB"/>
<path d="M72.0017 36.7507H30.7497C28.4171 36.809 26.5723 38.744 26.6253 41.0766V67.0396C26.2992 81.0404 37.3763 92.6581 51.3743 93.0001C65.375 92.6581 76.4494 81.0404 76.1234 67.0396V41.0766C76.1791 38.744 74.3342 36.809 72.0017 36.7507Z" fill="#7B83EB"/>
<path d="M53.6247 36.7507H51.3743V70.8831V75.3839C51.3743 75.9167 51.2683 76.4441 51.0589 76.9372C52.6015 76.301 53.6114 74.8034 53.6247 73.1335V36.7507Z" fill="#6E76D3"/>
<path d="M51.0589 76.9344C50.5685 77.1412 50.041 77.2499 49.5056 77.2499H28.6026C28.9181 78.0159 29.2785 78.7581 29.6602 79.5003H47.2552C48.9251 79.4897 50.4254 78.4771 51.0589 76.9344ZM27.818 74.9995C28.0433 75.7655 28.2898 76.4838 28.6053 77.2499C28.3137 76.5077 28.0433 75.7655 27.818 74.9995ZM26.6252 67.0979C26.6332 69.7751 27.0361 72.4389 27.818 74.9995C27.0361 72.4389 26.6358 69.7751 26.6252 67.0979Z" fill="#6269BC"/>
<path d="M26.6252 41.0739V67.0343C26.6252 67.037 26.6252 67.0396 26.6252 67.0396C26.6252 67.0396 26.6252 67.0397 26.6252 67.037V41.0739C26.6252 41.0766 26.6252 41.0766 26.6252 41.0739ZM30.7417 36.7507C28.4462 36.8064 26.6252 38.6857 26.6226 40.9679C26.6226 40.9785 26.6226 40.9918 26.6226 41.0024C26.6226 40.9918 26.6226 40.9838 26.6226 40.9732C26.6226 40.9706 26.6226 40.9706 26.6226 40.9679C26.6252 38.6857 28.4489 36.8064 30.7417 36.7507Z" fill="#B7B7B7"/>
<path d="M26.6252 40.9731C26.6252 40.9837 26.6252 40.9917 26.6252 41.0023C26.6252 41.0235 26.6252 41.0474 26.6252 41.0686V41.0739C26.6252 41.0739 26.6252 41.0739 26.6252 41.0765V67.0396C26.6252 67.0396 26.6252 67.0396 26.6252 67.0422C26.6252 67.0608 26.6252 67.0793 26.6252 67.1005C26.6332 69.7777 27.0361 72.4416 27.818 75.0021C28.0433 75.7682 28.3137 76.5103 28.6053 77.2525H49.5083C50.041 77.2525 50.5685 77.1465 51.0615 76.9371C51.2683 76.4467 51.377 75.9192 51.377 75.3838V70.883C51.3611 73.1493 49.5268 74.9836 47.2605 74.9995H27.8207C27.0334 72.4177 26.6305 69.7326 26.6279 67.0343V41.0686C26.6252 41.0368 26.6252 41.005 26.6252 40.9731Z" fill="#585EA9"/>
<path d="M51.3743 36.7507H49.1239V70.8831C49.108 73.1494 47.2738 74.9836 45.0075 74.9995H27.818C27.0308 72.4178 26.6279 69.7327 26.6252 67.0343V41.0686C26.6252 41.0368 26.6252 41.005 26.6252 40.9706C26.6252 41.0024 26.6252 41.0342 26.6252 41.0686V67.0343C26.6279 69.7327 27.0308 72.4178 27.818 74.9995H47.2579C49.5242 74.9836 51.3584 73.1494 51.3743 70.8831V36.7507Z" fill="#464B87"/>
<path d="M49.1239 36.7507H30.7417C28.4462 36.8064 26.6252 38.6857 26.6226 40.9679C26.6226 40.9706 26.6226 40.9706 26.6226 40.9732C26.6252 38.6857 28.4489 36.8064 30.747 36.7507H49.1239Z" fill="#757575"/>
<path d="M49.1239 36.7507H30.7496C28.4515 36.8064 26.6252 38.6884 26.6252 40.9732C26.6252 41.005 26.6252 41.0368 26.6252 41.0713V67.037C26.6279 69.7354 27.0308 72.4205 27.818 75.0022H45.0075C47.2738 74.9863 49.108 73.152 49.1239 70.8857V36.7507Z" fill="#383C6C"/>
<path d="M50.1868 32.0669C50.4784 32.1146 50.77 32.1517 51.0642 32.1782C50.77 32.1544 50.4784 32.1173 50.1868 32.0669C50.1868 32.0695 50.1868 32.0695 50.1868 32.0669Z" fill="#E5E5E5"/>
<path d="M49.5083 21.0005H38.2802C38.4498 21.7718 38.6884 22.5246 39.0011 23.2509C40.8062 27.5714 44.5701 30.7655 49.1266 31.8469C49.4765 31.937 49.8317 32.0113 50.1868 32.0696C49.829 32.0113 49.4765 31.937 49.1239 31.8469C46.9875 31.3407 45.026 30.3705 43.3588 29.0372C41.4689 27.5264 39.958 25.549 38.9985 23.2535H45.0048C45.0075 23.2535 45.0101 23.2535 45.0101 23.2535H47.2526C49.5242 23.2615 51.3611 25.101 51.369 27.37V32.2074C51.2657 32.1995 51.1623 32.1915 51.0589 32.1836C51.1623 32.1942 51.2657 32.2021 51.369 32.2074C51.7507 32.2313 52.1112 32.2525 52.4929 32.2525C52.8746 32.2525 53.2351 32.2286 53.6168 32.2074V25.1196C53.6168 22.848 51.7772 21.0084 49.5083 21.0005Z" fill="#6E76D3"/>
<path d="M50.1868 32.0696C50.4784 32.1173 50.77 32.1544 51.0642 32.1809C50.77 32.1518 50.4757 32.1146 50.1868 32.0696Z" fill="#929292"/>
<path d="M47.2578 23.251H45.0154C47.2817 23.2642 49.1186 25.1011 49.1265 27.3674V31.8444C49.4764 31.9345 49.8316 32.0087 50.1895 32.067C50.4784 32.1121 50.7699 32.1492 51.0668 32.1783C51.1702 32.1889 51.2736 32.1969 51.3769 32.2022V27.3648C51.3663 25.0985 49.5268 23.2589 47.2578 23.251Z" fill="#464B87"/>
<path d="M45.0154 23.251H39.0011C39.9606 25.5464 41.4715 27.5238 43.3614 29.0347C45.0287 30.368 46.9901 31.3381 49.1266 31.8444V27.3674C49.116 25.0985 47.2817 23.2616 45.0154 23.251Z" fill="#383C6C"/>
<path d="M3.75017 23.251H45.0021C47.2791 23.251 49.1265 25.0985 49.1265 27.3754V68.6274C49.1265 70.9043 47.2791 72.7518 45.0021 72.7518H3.75017C1.47326 72.7518 -0.374237 70.9043 -0.374237 68.6274V27.3754C-0.374237 25.0958 1.47326 23.251 3.75017 23.251Z" fill="url(#paint0_linear_36_3363)"/>
<path d="M35.2292 38.9507H26.9831V61.4043H21.7295V38.9507H13.5204V34.5957H35.2292V38.9507Z" fill="white"/>
</g>
<defs>
<linearGradient id="paint0_linear_36_3363" x1="8.22729" y1="20.0201" x2="40.5358" y2="75.9771" gradientUnits="userSpaceOnUse">
<stop stop-color="#5A62C3"/>
<stop offset="0.5" stop-color="#4D55BD"/>
<stop offset="1" stop-color="#3940AB"/>
</linearGradient>
<clipPath id="clip0_36_3363">
<rect width="96" height="96" fill="white"/>
</clipPath>
</defs>
</svg>
