<svg width="96" height="96" viewBox="0 0 96 96" fill="gray" xmlns="http://www.w3.org/2000/svg">
<path d="M16 28V36H80V28C80 25.8783 79.1571 23.8434 77.6569 22.3431C76.1566 20.8429 74.1217 20 72 20H24C21.8783 20 19.8434 20.8429 18.3431 22.3431C16.8429 23.8434 16 25.8783 16 28Z" fill="#F3F3F3"/>
<path d="M64 20H72C74.1217 20 76.1566 20.8429 77.6569 22.3431C79.1571 23.8434 80 25.8783 80 28V36H16V28C16 25.8783 16.8429 23.8434 18.3431 22.3431C19.8434 20.8429 21.8783 20 24 20H32M64 20V12M64 20H32M32 20V12M16 38V76C16 78.1217 16.8429 80.1566 18.3431 81.6569C19.8434 83.1571 21.8783 84 24 84H72C74.1217 84 76.1566 83.1571 77.6569 81.6569C79.1571 80.1566 80 78.1217 80 76V38" stroke="#F3F3F3" stroke-width="8" stroke-linecap="round" stroke-linejoin="round"/>
</svg>
