<svg width="96" height="96" viewBox="0 0 96 96" fill="none" xmlns="http://www.w3.org/2000/svg">
<g clip-path="url(#clip0_36_3536)">
<path d="M48 96C74.5097 96 96 74.5097 96 48C96 21.4903 74.5097 0 48 0C21.4903 0 0 21.4903 0 48C0 74.5097 21.4903 96 48 96Z" fill="#4A8CFF"/>
<path d="M17.2024 32.9721V55.5292C17.2142 57.9758 18.1969 60.3176 19.9345 62.04C21.6721 63.7623 24.0225 64.7244 26.4691 64.7146H59.3497C59.7942 64.7168 60.2214 64.5426 60.5376 64.2302C60.8538 63.9178 61.0332 63.4927 61.0364 63.0483V40.4911C61.0246 38.0445 60.0419 35.7027 58.3042 33.9804C56.5666 32.258 54.2163 31.2959 51.7697 31.3057H18.8992C18.6783 31.3033 18.459 31.3445 18.2541 31.427C18.0491 31.5095 17.8624 31.6317 17.7048 31.7865C17.5471 31.9413 17.4216 32.1257 17.3354 32.3292C17.2492 32.5326 17.204 32.7511 17.2024 32.9721ZM63.1295 41.7714L76.7045 31.8544C77.8831 30.8769 78.7976 31.1228 78.7976 32.8908V63.1295C78.7976 65.1414 77.6799 64.8975 76.7045 64.1639L63.1295 54.2693V41.7714Z" fill="white"/>
</g>
<defs>
<clipPath id="clip0_36_3536">
<rect width="96" height="96" fill="white"/>
</clipPath>
</defs>
</svg>
